<mxfile host="app.diagrams.net" modified="2023-05-08T06:37:13.974Z" agent="Mozilla/5.0 (Macintosh; Intel Mac OS X 10.15; rv:109.0) Gecko/20100101 Firefox/112.0" version="21.2.2" etag="eTddy02nmmqcYJNpq_uH" type="github">
  <diagram name="Page-1" id="HHfFjZHEkgntHL0ET5BJ">
    <mxGraphModel>
      <root>
        <mxCell id="0" />
        <mxCell id="1" parent="0" />
      </root>
    </mxGraphModel>
  </diagram>
</mxfile>
